<?xml version="1.0" encoding="utf-8"?>
<!-- Generator: Adobe Illustrator 26.3.1, SVG Export Plug-In . SVG Version: 6.00 Build 0)  -->
<svg version="1.1" id="Calque_1" xmlns="http://www.w3.org/2000/svg" xmlns:xlink="http://www.w3.org/1999/xlink" x="0px" y="0px"
	 viewBox="0 0 1080 1080" style="enable-background:new 0 0 1080 1080;" xml:space="preserve">
<style type="text/css">
	.st0{fill:#19355D;}
	.st1{fill:url(#SVGID_1_);}
</style>
<g>
	<g>
		<g>
			<g>
				<g>
					<g>
						<g>
							<path class="st0" d="M273.55,596.29H107.5V465h54.06v88.82h111.99V596.29z"/>
						</g>
					</g>
					<g>
						<g>
							<path class="st0" d="M279.34,492.03h69.51v67.58h19.31v36.68h-88.82v-36.68h19.31v-30.89h-19.31V492.03z M348.85,451.49
								v32.82h-50.2v-32.82H348.85z"/>
						</g>
					</g>
					<g>
						<g>
							<path class="st0" d="M478.35,581.46c31.09-24.12,41.37-35.16,65.55-61.66c3.73-4.08,7.35-8.16,10.83-12.21
								c4.65-5.41,4.76-13.46,0.06-18.83c-13.14-15.03-35.7-23.76-68.65-23.76H373.95v131.3h66.07c13.13,0,25.85-4.56,35.99-12.91
								L478.35,581.46z M484.01,553.82h-55.99v-46.33h55.99c22.01,0,28.96,11.58,28.96,23.17
								C512.97,542.42,506.02,553.82,484.01,553.82z"/>
						</g>
					</g>
				</g>
			</g>
			<g>
				<g>
					<path class="st0" d="M694.85,463.07h-33.11c-8.26,0-15.86,4.43-20.02,11.57c-0.61,1.05-1.23,2.1-1.86,3.15l-0.01,0.01
						l-0.17,0.28c-3.32,5.55-6.84,11.11-10.46,16.49c-9.64,14.46-20.87,29.25-33.39,44.01c-4.46,5.24-9.08,10.49-13.84,15.71
						c-4.68,5.13-7.23,11.84-7.23,18.77v23.23h54.05v-25.11h84.96v25.11h54.06v-75.3C767.84,486.05,745.05,463.07,694.85,463.07z
						 M713.78,532.58h-84.96v-11.58c0-7.72,4.63-15.45,19.11-15.45h46.73c14.48,0,19.11,7.73,19.11,15.45V532.58z"/>
				</g>
			</g>
			<g>
				<g>
					<path class="st0" d="M775.56,596.29V465H913.8c30.89,0,57.73,15.83,57.73,48.27c0,19.31-9.46,32.63-23.56,40.35l24.52,42.67
						h-63.72l-20.08-34.75h-59.08v34.75H775.56z M903.96,507.48h-74.34v15.45h74.34c4.25,0,9.65-1.54,9.65-7.72
						S908.2,507.48,903.96,507.48z"/>
				</g>
			</g>
		</g>
	</g>
	<g>
		<g>
			<linearGradient id="SVGID_1_" gradientUnits="userSpaceOnUse" x1="151.8791" y1="526.1251" x2="696.7707" y2="526.1251">
				<stop  offset="0" style="stop-color:#00FAC7"/>
				<stop  offset="1" style="stop-color:#116EAB"/>
			</linearGradient>
			<path class="st1" d="M573.32,545.58c32.68-35.81,57.26-71.75,71.06-103.94c13.99-32.62,16.97-61.4,8.61-83.23
				c-6.44-16.81-22.64-37.7-63.31-41.76c-56.17-5.62-140.49,26.46-231.35,88.01c-4.81,3.26-6.06,9.79-2.81,14.6
				c3.26,4.81,9.79,6.06,14.6,2.81C455.7,364.09,537,332.5,587.59,337.56c24.08,2.41,39.48,11.95,45.76,28.36
				c13.76,35.92-15.2,99.33-75.57,165.48c-94.83,103.91-237.86,183.84-324.5,183.83c-5.95,0-11.64-0.38-17.03-1.15
				c-18.89-2.71-31.81-10.23-38.41-22.34c-8.12-14.91-6.29-36.8,5.13-61.65c2.43-5.27,0.12-11.52-5.16-13.94
				c-5.27-2.43-11.52-0.12-13.94,5.16c-14.27,31.02-15.86,59.61-4.49,80.48c6.84,12.55,21.74,28.49,53.89,33.1
				c6.25,0.9,12.86,1.34,19.78,1.34c42.43,0,96.88-16.68,156.04-48.1C456.82,652.16,522.25,601.53,573.32,545.58z M695.55,621.18
				c-2.62-3.64-9.34-5.43-20.15-5.35c-9.34,0.07-18.68,1.42-28.04,4.04c-9.36,2.63-18.42,6.16-27.18,10.62
				c-8.77,4.45-16.92,9.48-24.47,15.07c-7.55,5.6-14.16,11.38-19.84,17.34c-5.68,5.97-9.09,11.09-10.23,15.39
				c-1.14,4.29,0.02,7.57,3.47,9.85c3.45,2.27,9.22,3.38,17.31,3.32c8.37-0.06,15.88-0.71,22.51-1.96
				c6.63-1.24,13.46-2.87,20.49-4.88l16.8-17.64c-6.86,2.01-13,3.59-18.42,4.74c-5.42,1.15-10.56,1.74-15.43,1.78
				c-4.64,0.03-7.38-0.71-8.23-2.24c-0.85-1.53,0.28-3.92,3.39-7.18c0.2-0.21,0.38-0.4,0.52-0.55c0.14-0.15,0.3-0.31,0.46-0.48
				l5.01-0.04c8.94-0.07,17.26-0.76,24.98-2.07c7.71-1.31,14.8-3.17,21.26-5.56c6.46-2.39,12.28-5.24,17.44-8.53
				c5.16-3.3,9.67-6.96,13.51-11C696.57,629.72,698.17,624.83,695.55,621.18z M658.17,637.57c-1.43,1.5-3.48,3.01-6.16,4.52
				c-2.68,1.51-5.93,2.77-9.75,3.78c-3.83,1.01-8.2,1.53-13.12,1.57l-2.46,0.02c2.52-2.23,5.56-4.48,9.12-6.75
				c3.56-2.26,7.13-4.15,10.71-5.67c3.58-1.52,6.65-2.29,9.19-2.31c2.49-0.02,3.85,0.44,4.08,1.38
				C660.01,635.04,659.47,636.19,658.17,637.57z M591.54,644.42c2.82-2.56,5.38-5.04,7.67-7.44c3.6-3.77,6.01-7.22,7.24-10.34
				c1.23-3.12,0.89-5.61-1.02-7.47c-1.91-1.86-5.86-2.77-11.86-2.73c-4.07,0.03-8.08,0.44-12.01,1.24
				c-3.93,0.8-7.97,2.04-12.11,3.73c-4.14,1.69-8.57,3.92-13.27,6.68l-0.68,0.01l10.7-10.18l-26.23,0.19l-89.74,73.08l32.85-0.24
				l43.74-35.67c5.32-4.34,10.1-7.91,14.35-10.69c4.25-2.78,7.99-4.85,11.23-6.22c3.24-1.37,5.93-2.06,8.09-2.07
				c1.75-0.01,2.81,0.44,3.18,1.35c0.36,0.91-0.33,2.29-2.09,4.14c-1.43,1.5-3.14,3.12-5.14,4.86c-1.99,1.74-3.69,3.17-5.09,4.29
				l-48.83,39.86l32.84-0.24l47.68-38.83C585.88,649.41,588.71,646.97,591.54,644.42z"/>
		</g>
	</g>
</g>
</svg>
