<?xml version="1.0" encoding="utf-8"?>
<!-- Generator: Adobe Illustrator 26.3.1, SVG Export Plug-In . SVG Version: 6.00 Build 0)  -->
<svg version="1.1" id="Calque_1" xmlns="http://www.w3.org/2000/svg" xmlns:xlink="http://www.w3.org/1999/xlink" x="0px" y="0px"
	 viewBox="0 0 1080 1080" style="enable-background:new 0 0 1080 1080;" xml:space="preserve">
<style type="text/css">
	.st0{fill:#FFFFFF;}
</style>
<g>
	<g>
		<g>
			<g>
				<g>
					<g>
						<path class="st0" d="M274.51,610.09H108.66V478.95h54v88.71h111.86V610.09z"/>
					</g>
				</g>
				<g>
					<g>
						<path class="st0" d="M280.3,505.95h69.43v67.5h19.29v36.64H280.3v-36.64h19.29v-30.86H280.3V505.95z M349.73,465.45v32.78
							h-50.14v-32.78H349.73z"/>
					</g>
				</g>
				<g>
					<g>
						<path class="st0" d="M479.08,595.27c31.05-24.09,41.32-35.12,65.47-61.59c3.73-4.08,7.34-8.15,10.82-12.2
							c4.64-5.4,4.75-13.45,0.06-18.81c-13.13-15.01-35.65-23.73-68.57-23.73H374.8v131.14h66c13.12,0,25.82-4.56,35.95-12.9
							L479.08,595.27z M484.73,567.66H428.8v-46.28h55.93c21.98,0,28.93,11.57,28.93,23.14
							C513.66,556.28,506.72,567.66,484.73,567.66z"/>
					</g>
				</g>
			</g>
		</g>
		<path class="st0" d="M695.33,477.02h-33.07c-8.25,0-15.84,4.43-20,11.56c-0.61,1.05-1.23,2.1-1.86,3.15l-0.01,0.01l-0.17,0.28
			c-3.31,5.54-6.84,11.1-10.44,16.47c-9.62,14.44-20.85,29.22-33.35,43.96c-4.45,5.24-9.07,10.48-13.83,15.69
			c-4.67,5.12-7.22,11.82-7.22,18.75v23.2h53.99v-25.08h84.86v25.08h54v-75.22C768.24,499.97,745.47,477.02,695.33,477.02z
			 M714.23,546.44h-84.86v-11.57c0-7.71,4.63-15.43,19.09-15.43h46.68c14.46,0,19.09,7.72,19.09,15.43V546.44z"/>
		<path class="st0" d="M775.95,610.09V478.95h138.08c30.86,0,57.66,15.81,57.66,48.21c0,19.28-9.45,32.59-23.53,40.31l24.49,42.62
			h-63.64l-20.06-34.71h-59.01v34.71H775.95z M904.2,521.37h-74.25v15.43h74.25c4.24,0,9.64-1.54,9.64-7.71
			S908.44,521.37,904.2,521.37z"/>
	</g>
	<g>
		<g>
			<path class="st0" d="M573.94,559.43c32.64-35.77,57.19-71.67,70.98-103.82c13.98-32.58,16.95-61.33,8.6-83.14
				c-6.43-16.79-22.62-37.65-63.23-41.71c-56.1-5.61-140.33,26.43-231.09,87.9c-4.8,3.25-6.06,9.78-2.8,14.58
				c3.25,4.8,9.78,6.06,14.58,2.8c85.48-57.9,166.68-89.45,217.22-84.4c24.06,2.41,39.43,11.94,45.71,28.33
				c13.74,35.88-15.18,99.22-75.49,165.29C463.71,649.06,320.84,728.9,234.3,728.9c-5.94,0-11.63-0.38-17.01-1.15
				c-18.87-2.71-31.78-10.22-38.37-22.32c-8.11-14.89-6.29-36.76,5.13-61.57c2.42-5.27,0.12-11.5-5.15-13.93
				c-5.27-2.42-11.5-0.12-13.93,5.15c-14.25,30.99-15.84,59.54-4.49,80.39c6.83,12.54,21.71,28.46,53.83,33.06
				c6.25,0.9,12.84,1.34,19.76,1.34c42.38,0,96.77-16.66,155.86-48.05C457.58,665.89,522.93,615.32,573.94,559.43z M696.03,634.95
				c-2.62-3.64-9.33-5.42-20.12-5.34c-9.33,0.07-18.66,1.41-28,4.04c-9.35,2.62-18.39,6.16-27.15,10.61
				c-8.76,4.45-16.9,9.47-24.44,15.06c-7.54,5.59-14.15,11.36-19.82,17.32c-5.68,5.96-9.08,11.08-10.21,15.37
				c-1.13,4.29,0.02,7.57,3.47,9.84c3.45,2.27,9.21,3.38,17.29,3.32c8.36-0.06,15.86-0.71,22.48-1.95
				c6.62-1.24,13.45-2.87,20.47-4.88l16.78-17.62c-6.85,2.01-12.98,3.59-18.4,4.73c-5.41,1.15-10.55,1.74-15.41,1.77
				c-4.63,0.03-7.37-0.71-8.22-2.24c-0.85-1.53,0.28-3.92,3.38-7.18c0.2-0.21,0.38-0.4,0.52-0.55c0.14-0.15,0.3-0.31,0.46-0.48
				l5-0.04c8.93-0.07,17.24-0.76,24.95-2.07c7.7-1.31,14.78-3.16,21.24-5.55c6.46-2.39,12.26-5.23,17.42-8.52
				c5.16-3.29,9.65-6.95,13.49-10.99C697.04,643.47,698.65,638.59,696.03,634.95z M658.69,651.31c-1.43,1.5-3.48,3.01-6.15,4.51
				c-2.67,1.51-5.92,2.77-9.74,3.78c-3.82,1.01-8.19,1.53-13.11,1.57l-2.46,0.02c2.52-2.23,5.56-4.48,9.11-6.74
				c3.55-2.26,7.12-4.15,10.69-5.67c3.58-1.52,6.64-2.28,9.18-2.3c2.49-0.02,3.84,0.44,4.08,1.37
				C660.53,648.79,659.99,649.94,658.69,651.31z M592.14,658.16c2.82-2.55,5.38-5.03,7.66-7.43c3.59-3.77,6-7.21,7.23-10.33
				c1.23-3.12,0.89-5.6-1.02-7.46c-1.91-1.86-5.85-2.77-11.84-2.72c-4.07,0.03-8.07,0.44-11.99,1.24c-3.93,0.8-7.96,2.04-12.1,3.73
				c-4.14,1.69-8.56,3.92-13.26,6.67l-0.68,0.01l10.69-10.17l-26.2,0.19l-89.63,73l32.81-0.24l43.69-35.63
				c5.31-4.34,10.09-7.9,14.33-10.67c4.24-2.78,7.98-4.85,11.22-6.21c3.24-1.36,5.93-2.05,8.08-2.07c1.75-0.01,2.81,0.44,3.17,1.35
				c0.36,0.91-0.33,2.29-2.09,4.13c-1.43,1.5-3.14,3.12-5.13,4.86c-1.99,1.74-3.69,3.17-5.09,4.28l-48.77,39.82l32.81-0.24
				l47.63-38.79C586.49,663.15,589.31,660.71,592.14,658.16z"/>
		</g>
	</g>
</g>
</svg>
