<?xml version="1.0" encoding="utf-8"?>
<!-- Generator: Adobe Illustrator 26.3.1, SVG Export Plug-In . SVG Version: 6.00 Build 0)  -->
<svg version="1.1" id="Calque_1" xmlns="http://www.w3.org/2000/svg" xmlns:xlink="http://www.w3.org/1999/xlink" x="0px" y="0px"
	 viewBox="0 0 1080 1080" style="enable-background:new 0 0 1080 1080;" xml:space="preserve">
<style type="text/css">
	.st0{fill:#FFFFFF;}
</style>
<g>
	<g>
		<g>
			<g>
				<g>
					<g>
						<path class="st0" d="M332.45,582.57H192.62V472.01h45.53v74.8h94.31V582.57z"/>
					</g>
				</g>
				<g>
					<g>
						<path class="st0" d="M337.33,494.77h58.54v56.91h16.26v30.89h-74.8v-30.89h16.26v-26.02h-16.26V494.77z M395.87,460.62v27.64
							h-42.28v-27.64H395.87z"/>
					</g>
				</g>
				<g>
					<g>
						<path class="st0" d="M504.92,570.08c26.18-20.31,34.84-29.61,55.2-51.93c3.14-3.44,6.19-6.87,9.12-10.29
							c3.91-4.55,4.01-11.34,0.05-15.86c-11.07-12.65-30.06-20.01-57.82-20.01h-94.48v110.57h55.64c11.06,0,21.77-3.84,30.31-10.87
							L504.92,570.08z M509.69,546.8h-47.15v-39.02h47.15c18.53,0,24.39,9.76,24.39,19.51C534.08,537.21,528.23,546.8,509.69,546.8z
							"/>
					</g>
				</g>
			</g>
		</g>
		<path class="st0" d="M687.26,470.38h-27.88c-6.96,0-13.36,3.73-16.86,9.74c-0.51,0.88-1.04,1.77-1.57,2.65l-0.01,0.01l-0.14,0.24
			c-2.79,4.67-5.76,9.36-8.81,13.89c-8.11,12.18-17.58,24.64-28.12,37.06c-3.75,4.42-7.65,8.84-11.66,13.23
			c-3.94,4.32-6.09,9.97-6.09,15.81v19.56h45.52v-21.14h71.55v21.14h45.53v-63.42C748.72,489.73,729.53,470.38,687.26,470.38z
			 M703.19,528.91h-71.55v-9.76c0-6.5,3.9-13.01,16.1-13.01h39.36c12.19,0,16.1,6.51,16.1,13.01V528.91z"/>
		<path class="st0" d="M755.22,582.57V472.01h116.42c26.02,0,48.62,13.33,48.62,40.65c0,16.26-7.97,27.48-19.84,33.98l20.65,35.94
			h-53.66l-16.91-29.27h-49.76v29.27H755.22z M863.35,507.78h-62.6v13.01h62.6c3.58,0,8.13-1.3,8.13-6.5
			S866.93,507.78,863.35,507.78z"/>
	</g>
	<g>
		<g>
			<path class="st0" d="M408.01,384.98c13.92,1.48,36.3-8.81,49.85-22.89c13.45-13.98,13.03-26.34-0.81-27.7
				c-13.78-1.35-35.81,8.73-49.34,22.58C394.08,370.93,394.15,383.51,408.01,384.98z M584.9,539.86
				c27.52-30.16,48.22-60.43,59.85-87.53c11.79-27.47,14.29-51.71,7.25-70.1c-5.42-14.15-19.07-31.75-53.31-35.17
				c-47.3-4.73-118.32,22.28-194.84,74.12c-4.05,2.74-5.11,8.25-2.36,12.29c2.74,4.05,8.25,5.11,12.29,2.36
				c72.07-48.82,140.53-75.42,183.14-71.16c20.28,2.03,33.25,10.06,38.54,23.88c11.58,30.25-12.8,83.65-63.64,139.36
				c-79.86,87.51-200.31,154.82-273.28,154.82c-5.01,0-9.8-0.32-14.34-0.97c-15.91-2.28-26.79-8.61-32.35-18.82
				c-6.84-12.55-5.3-30.99,4.32-51.92c2.04-4.44,0.1-9.7-4.34-11.74c-4.44-2.04-9.7-0.1-11.74,4.34
				c-12.01,26.13-13.36,50.2-3.79,67.78c5.76,10.57,18.3,23.99,45.38,27.88c5.27,0.76,10.83,1.13,16.66,1.13
				c35.73,0,81.59-14.05,131.41-40.51C486.8,629.62,541.9,586.99,584.9,539.86z M465.54,671.93c-17.83-2.43-46.4,11.02-64,30.16
				c-17.74,19.29-17.73,37.16,0.21,39.79c18.02,2.64,47.09-11.13,64.72-30.62C483.96,691.93,483.45,674.37,465.54,671.93z
				 M206.07,625.7c-12.57-1.71-33.59,8.04-47.1,21.87c-13.61,13.94-14.51,26.81-1.88,28.66c12.69,1.86,34.07-8.12,47.62-22.19
				C218.15,640.07,218.69,627.42,206.07,625.7z M600.25,623.1c2.38-2.15,4.53-4.24,6.46-6.27c3.03-3.18,5.06-6.08,6.1-8.71
				c1.03-2.63,0.75-4.72-0.86-6.29c-1.61-1.57-4.94-2.33-9.99-2.29c-3.43,0.03-6.8,0.37-10.11,1.04c-3.31,0.67-6.71,1.72-10.2,3.14
				c-3.49,1.43-7.21,3.3-11.18,5.63l-0.57,0l9.01-8.57l-22.09,0.16l-75.57,61.55l27.66-0.2l36.84-30.04c4.48-3.66,8.5-6.66,12.08-9
				c3.58-2.34,6.73-4.09,9.46-5.24c2.73-1.15,5-1.73,6.81-1.75c1.48-0.01,2.37,0.37,2.68,1.14c0.31,0.77-0.28,1.93-1.76,3.48
				c-1.2,1.27-2.65,2.63-4.33,4.1c-1.68,1.47-3.11,2.67-4.29,3.61l-41.12,33.57l27.66-0.2l40.15-32.7
				C595.48,627.31,597.87,625.25,600.25,623.1z M744.26,353.32c-17.35-1.7-43.97,10.64-59.61,27.66
				c-15.76,17.15-14.52,32.63,2.94,34.49c17.54,1.86,44.59-10.74,60.24-28.05C763.36,370.25,761.69,355.03,744.26,353.32z
				 M670.88,599.03c-7.86,0.06-15.73,1.19-23.61,3.4c-7.88,2.21-15.51,5.19-22.89,8.94c-7.38,3.75-14.25,7.98-20.61,12.69
				c-6.36,4.71-11.93,9.58-16.71,14.6c-4.78,5.02-7.65,9.34-8.61,12.96c-0.96,3.61,0.02,6.38,2.92,8.3
				c2.91,1.92,7.77,2.85,14.58,2.8c7.05-0.05,13.37-0.6,18.96-1.65c5.58-1.05,11.34-2.42,17.26-4.11l14.15-14.85
				c-5.78,1.69-10.95,3.03-15.51,3.99c-4.57,0.97-8.9,1.47-12.99,1.5c-3.91,0.03-6.22-0.6-6.93-1.89c-0.72-1.29,0.24-3.3,2.85-6.05
				c0.17-0.18,0.32-0.33,0.44-0.46c0.12-0.13,0.25-0.26,0.39-0.41l4.22-0.03c7.53-0.06,14.54-0.64,21.03-1.74
				c6.49-1.11,12.46-2.67,17.91-4.68c5.44-2.01,10.34-4.41,14.69-7.19c4.35-2.78,8.14-5.86,11.37-9.26
				c4.92-5.17,6.28-9.29,4.07-12.36C685.63,600.46,679.98,598.96,670.88,599.03z M656.36,617.33c-1.21,1.27-2.93,2.53-5.19,3.81
				c-2.25,1.27-4.99,2.33-8.21,3.18c-3.22,0.85-6.91,1.29-11.05,1.32l-2.07,0.01c2.12-1.88,4.69-3.78,7.68-5.68
				c3-1.91,6-3.5,9.02-4.78c3.01-1.28,5.6-1.93,7.74-1.94c2.1-0.02,3.24,0.37,3.44,1.16C657.91,615.2,657.46,616.17,656.36,617.33z"
				/>
		</g>
	</g>
</g>
</svg>
